
<svg xmlns="http://www.w3.org/2000/svg" viewBox="0 0 128 128" width="128" height="128">
  <circle cx="64" cy="64" r="64" fill="#E8F5E9"/>
  <g transform="translate(24, 24)">
    <path d="M40,0 C17.909,0 0,17.909 0,40 C0,62.091 17.909,80 40,80 C62.091,80 80,62.091 80,40 C80,17.909 62.091,0 40,0 Z" fill="#4CAF50" opacity="0.8"/>
    <path d="M40,10 C23.432,10 10,23.432 10,40 C10,56.568 23.432,70 40,70 C56.568,70 70,56.568 70,40 C70,23.432 56.568,10 40,10 Z" fill="#2E7D32"/>
    <path d="M40,20 C29.007,20 20,29.007 20,40 C20,50.993 29.007,60 40,60 C50.993,60 60,50.993 60,40 C60,29.007 50.993,20 40,20 Z" fill="#E8F5E9"/>
    <path d="M32.5,35 C32.5,32.5 35,30 40,30 C45,30 47.5,32.5 47.5,35 L50,35 C50,30 45,25 40,25 C35,25 30,30 30,35 L32.5,35 Z" fill="#2E7D32"/>
    <path d="M40,35 L40,55 M30,45 L50,45" stroke="#2E7D32" stroke-width="3" stroke-linecap="round"/>
  </g>
</svg>
